<?xml version="1.0" encoding="UTF-8"?>
<!-- Created with Inkscape (http://www.inkscape.org/) -->
<svg id="a" width="1122.6" height="794" version="1.1" viewBox="0 0 1122.6 794" xml:space="preserve" xmlns="http://www.w3.org/2000/svg"><g id="b" transform="matrix(.32 0 0 .32 0 2.0104e-5)"><path id="c" d="m0 0h3508.3v2480.5h-3508.3z" fill="#f1ede2" stroke-width="9.8835"/><path id="d" d="m33.003-6.2825e-5h3439.6v721.19h-3439.6z" fill="#f16f53" stroke-width="7.1821"/><path id="e" d="m3145.8 360.75c0 80.226-65.041 145.27-145.27 145.27-80.23 0-145.27-65.041-145.27-145.27 0-80.231 65.039-145.27 145.27-145.27 80.23 0 145.27 65.04 145.27 145.27z" fill="#f1ede2"/><g id="f" fill="#f16f53"><path id="g" d="m2913.6 310.07h175.89c-17.555-30.347-50.365-50.766-87.945-50.766s-70.39 20.419-87.946 50.766z" opacity=".2"/><path id="h" d="m3052.3 272.89v175.89c30.348-17.555 50.766-50.365 50.766-87.947 5e-4 -37.58-20.419-70.389-50.766-87.944z" opacity=".2"/><path id="i" d="m2900 360.83h203.06c0-18.493-4.9464-35.831-13.586-50.766h-175.89c-8.6401 14.935-13.587 32.272-13.587 50.766z" opacity=".4"/><path id="j" d="m3001.6 259.3v203.06c18.494 0 35.832-4.9469 50.766-13.586v-175.89c-14.935-8.6396-32.272-13.586-50.766-13.586z" opacity=".4"/><path id="k" d="m2913.6 411.6h175.89c8.6401-14.935 13.586-32.272 13.586-50.766h-203.06c0 18.494 4.9469 35.832 13.587 50.766z" opacity=".498"/><path id="l" d="m2950.8 272.89v175.89c14.935 8.6401 32.272 13.586 50.766 13.586v-203.06c-18.494 0-35.831 4.9469-50.766 13.586z" opacity=".498"/><path id="m" d="m3089.5 411.6h-175.89c17.555 30.347 50.365 50.766 87.946 50.766 37.581-1e-5 70.39-20.419 87.946-50.766z" opacity=".6"/><path id="n" d="m2950.8 448.78v-175.89c-30.346 17.555-50.766 50.365-50.766 87.946 0 37.581 20.42 70.39 50.766 87.946z" opacity=".6"/></g><text id="o" x="385.65662" y="339.81189" fill="#f1ede2" font-family="sans-serif" font-size="141.67px" font-weight="bold" stroke-width="3.125" style="font-variant-caps:normal;font-variant-east-asian:normal;font-variant-ligatures:normal;font-variant-numeric:normal;line-height:1.25" xml:space="preserve"><tspan id="p" x="385.65662" y="339.81189" style="font-variant-caps:normal;font-variant-east-asian:normal;font-variant-ligatures:normal;font-variant-numeric:normal">CERTIFICATE OF</tspan><tspan id="q" x="385.65662" y="516.89563" style="font-variant-caps:normal;font-variant-east-asian:normal;font-variant-ligatures:normal;font-variant-numeric:normal">COMPLETION</tspan></text><text id="r" x="392.38678" y="933.10858" fill="#59524f" font-family="sans-serif" font-size="66.667px" font-weight="bold" stroke-width="3.125" style="font-variant-caps:normal;font-variant-east-asian:normal;font-variant-ligatures:normal;font-variant-numeric:normal;line-height:1.25" xml:space="preserve"><tspan id="s" x="392.38678" y="933.10858" fill="#59524f" font-family="sans-serif" font-size="66.667px" font-weight="bold" stroke-width="3.125" style="font-variant-caps:normal;font-variant-east-asian:normal;font-variant-ligatures:normal;font-variant-numeric:normal">THIS CERTIFICATE GOES TO</tspan></text><text id="t" x="391.67471" y="1246.0619" fill="#f16f53" font-family="sans-serif" font-size="212.5px" font-weight="bold" stroke-width="3.125" style="font-variant-caps:normal;font-variant-east-asian:normal;font-variant-ligatures:normal;font-variant-numeric:normal;line-height:1.25" xml:space="preserve"><tspan id="u" x="391.67471" y="1246.0619" style="font-variant-caps:normal;font-variant-east-asian:normal;font-variant-ligatures:normal;font-variant-numeric:normal">Fulan</tspan><tspan id="v" x="391.67471" y="1511.6869" style="font-variant-caps:normal;font-variant-east-asian:normal;font-variant-ligatures:normal;font-variant-numeric:normal">Al- Fulan</tspan></text><text id="w" x="391.3736" y="1638.6191" fill="#59524f" font-family="sans-serif" font-size="58.333px" stroke-width="3.125" style="font-variant-caps:normal;font-variant-east-asian:normal;font-variant-ligatures:normal;font-variant-numeric:normal;line-height:1.25" xml:space="preserve"><tspan id="x" x="391.3736" y="1638.6191" style="font-variant-caps:normal;font-variant-east-asian:normal;font-variant-ligatures:normal;font-variant-numeric:normal">for completing the 3 days prewedding seminar</tspan><tspan id="y" x="391.3736" y="1711.5358" style="font-variant-caps:normal;font-variant-east-asian:normal;font-variant-ligatures:normal;font-variant-numeric:normal">the Masjid Nuurul Huda</tspan></text><text id="z" x="3112.1536" y="1851.5778" fill="#f16f53" font-family="sans-serif" font-size="48.688px" font-weight="bold" stroke-width="2.2822" text-align="end" text-anchor="end" style="font-variant-caps:normal;font-variant-east-asian:normal;font-variant-ligatures:normal;font-variant-numeric:normal;line-height:1.25" xml:space="preserve"><tspan id="aa" x="3112.1536" y="1851.5778" fill="#f16f53" font-family="sans-serif" font-size="48.688px" font-weight="bold" stroke-width="2.2822" text-align="end" text-anchor="end" style="font-variant-caps:normal;font-variant-east-asian:normal;font-variant-ligatures:normal;font-variant-numeric:normal">AHMAD HABIBI</tspan></text><text id="ab" x="3111.5691" y="1912.4492" fill="#59524f" font-family="sans-serif" font-size="44.343px" stroke-width="2.3755" style="font-variant-caps:normal;font-variant-east-asian:normal;font-variant-ligatures:normal;font-variant-numeric:normal;line-height:1.25" xml:space="preserve"><tspan id="ac" x="3111.5691" y="1912.4492" fill="#59524f" font-family="sans-serif" font-size="44.343px" stroke-width="2.3755" text-align="end" text-anchor="end" style="font-variant-caps:normal;font-variant-east-asian:normal;font-variant-ligatures:normal;font-variant-numeric:normal">Event Manager</tspan></text><text id="ad" x="3115.2488" y="2148.7183" fill="#f16f53" font-family="sans-serif" font-size="48.688px" font-weight="bold" stroke-width="2.2822" text-align="end" text-anchor="end" style="font-variant-caps:normal;font-variant-east-asian:normal;font-variant-ligatures:normal;font-variant-numeric:normal;line-height:1.25" xml:space="preserve"><tspan id="ae" x="3115.2488" y="2148.7183" fill="#f16f53" font-family="sans-serif" font-size="48.688px" font-weight="bold" stroke-width="2.2822" text-align="end" text-anchor="end" style="font-variant-caps:normal;font-variant-east-asian:normal;font-variant-ligatures:normal;font-variant-numeric:normal">NALENDRO KUSUMA WIJAYA</tspan></text><text id="af" x="3111.5254" y="2222.0735" fill="#59524f" font-family="sans-serif" font-size="44.343px" stroke-width="2.3755" style="font-variant-caps:normal;font-variant-east-asian:normal;font-variant-ligatures:normal;font-variant-numeric:normal;line-height:1.25" xml:space="preserve"><tspan id="ag" x="3111.5254" y="2222.0735" fill="#59524f" font-family="sans-serif" font-size="44.343px" stroke-width="2.3755" text-align="end" text-anchor="end" style="font-variant-caps:normal;font-variant-east-asian:normal;font-variant-ligatures:normal;font-variant-numeric:normal">Masjid Head Manager</tspan></text></g></svg>
